<?xml version="1.0" encoding="utf-8"?>
<!-- Generator: Adobe Illustrator 26.3.1, SVG Export Plug-In . SVG Version: 6.00 Build 0)  -->
<svg version="1.1" id="Layer_1" xmlns="http://www.w3.org/2000/svg" xmlns:xlink="http://www.w3.org/1999/xlink" x="0px" y="0px" width="600px" height="33px"
	 viewBox="0 0 600 33" style="enable-background:new 0 0 600 33;" xml:space="preserve">
<style type="text/css">
	.st0{fill:#FFFFFF;}
	.st1{fill:#EF4323;}
</style>
<g>
	<path class="st0" d="M311.3,12.69H288.7c-1.39,0-2.51-1.14-2.51-2.54c0-1.4,1.12-2.54,2.51-2.54h30.13V0H288.7
		c-5.55,0-10.04,4.55-10.04,10.15c0,5.61,4.5,10.15,10.04,10.15h22.59c1.39,0,2.51,1.14,2.51,2.54s-1.12,2.54-2.51,2.54h-30.13V33
		h30.13c5.55,0,10.04-4.55,10.04-10.15C321.34,17.24,316.84,12.69,311.3,12.69z"/>
</g>
<path class="st0" d="M383.26,7.62h30.13V0h-30.13c-5.55,0-10.04,4.55-10.04,10.15c0,2.4,0.83,4.61,2.21,6.35
	c-1.38,1.74-2.21,3.94-2.21,6.35V33h40.17v-7.62h-32.64v-2.54c0-1.4,1.12-2.54,2.51-2.54h22.59v-7.62h-22.59
	c-1.39,0-2.51-1.14-2.51-2.54C380.75,8.75,381.88,7.62,383.26,7.62z"/>
<path class="st0" d="M0,0v33h7.53V20.31h22.59c5.55,0,10.04-4.55,10.04-10.15V0H0z M32.64,10.15c0,1.4-1.12,2.54-2.51,2.54H7.53
	V7.62h25.1V10.15z"/>
<path class="st0" d="M216.74,0h-30.13v33h7.53V22.85h25.1V33h7.53V10.15C226.78,4.55,222.28,0,216.74,0z M194.14,15.23V7.62h22.59
	c1.39,0,2.51,1.14,2.51,2.54h0v5.08H194.14z"/>
<g>
	<path class="st1" d="M474.06,22.85c0-1.4,1.12-2.54,2.51-2.54h20.08c5.55,0,10.04-4.55,10.04-10.15c0-5.61-4.5-10.15-10.04-10.15
		h-30.13v7.62h30.13c1.39,0,2.51,1.14,2.51,2.54c0,1.4-1.12,2.54-2.51,2.54h-20.08c-5.55,0-10.04,4.55-10.04,10.15V33h40.17v-7.62
		h-32.64V22.85z"/>
</g>
<g>
	<path class="st1" d="M559.83,0v7.62h32.64v2.54c0,1.4-1.12,2.54-2.51,2.54h-17.57v7.62h17.57c1.39,0,2.51,1.14,2.51,2.54
		c0,1.4-1.12,2.54-2.51,2.54h-30.13V33h30.13C595.5,33,600,28.45,600,22.85c0-2.4-0.83-4.61-2.21-6.35
		c1.38-1.74,2.21-3.94,2.21-6.35V7.62V0H559.83z"/>
</g>
<polygon class="st0" points="125.94,0 125.94,12.69 100.84,12.69 100.84,0 93.31,0 93.31,33 100.84,33 100.84,20.31 125.94,20.31 
	125.94,33 133.47,33 133.47,0 "/>
</svg>
